<?xml version="1.0" encoding="UTF-8" standalone="no"?>
<svg
   xmlns:dc="http://purl.org/dc/elements/1.1/"
   xmlns:cc="http://creativecommons.org/ns#"
   xmlns:rdf="http://www.w3.org/1999/02/22-rdf-syntax-ns#"
   xmlns:svg="http://www.w3.org/2000/svg"
   xmlns="http://www.w3.org/2000/svg"
   xmlns:xlink="http://www.w3.org/1999/xlink"
   xmlns:sodipodi="http://sodipodi.sourceforge.net/DTD/sodipodi-0.dtd"
   xmlns:inkscape="http://www.inkscape.org/namespaces/inkscape"
   width="1000"
   height="1000"
   viewBox="0 0 264.58333 264.58334"
   version="1.1"
   id="svg1237"
   inkscape:version="1.0 (4035a4fb49, 2020-05-01)"
   sodipodi:docname="kulupulogomodified.svg">
  <defs
     id="defs1231" />
  <sodipodi:namedview
     id="base"
     pagecolor="#ffffff"
     bordercolor="#666666"
     borderopacity="1.0"
     inkscape:pageopacity="0.0"
     inkscape:pageshadow="2"
     inkscape:zoom="0.24748737"
     inkscape:cx="241.59392"
     inkscape:cy="489.30593"
     inkscape:document-units="mm"
     inkscape:current-layer="layer1"
     inkscape:document-rotation="0"
     showgrid="false"
     showborder="true"
     units="px"
     inkscape:snap-page="true"
     inkscape:snap-bbox="true"
     inkscape:window-width="1360"
     inkscape:window-height="728"
     inkscape:window-x="0"
     inkscape:window-y="0"
     inkscape:window-maximized="0" />
  <metadata
     id="metadata1234">
    <rdf:RDF>
      <cc:Work
         rdf:about="">
        <dc:format>image/svg+xml</dc:format>
        <dc:type
           rdf:resource="http://purl.org/dc/dcmitype/StillImage" />
        <dc:title />
      </cc:Work>
    </rdf:RDF>
  </metadata>
  <g
     inkscape:label="Layer 1"
     inkscape:groupmode="layer"
     id="layer1">
    <rect
       style="fill:#231f20;stroke-width:0.264583;fill-opacity:1"
       id="rect1838"
       width="264.58334"
       height="264.58334"
       x="0"
       y="0" />
    <g
       transform="translate(-2.7973887,11.718108)"
       id="g1834">
      <path
         id="path1130-2"
         style="fill:#ffffff;stroke-width:0.995824"
         d="m 168.34531,58.19922 -29.71538,9.723097 a 17.521244,17.521244 0 0 0 -10.17254,8.717257 l -13.63198,26.836146 a 10.907927,10.907927 0 0 1 -4.34571,4.54909 l -12.840327,7.27921 a 6.1044908,6.1044908 0 0 0 -3.093944,5.31049 v 0 a 4.5445989,4.5445989 0 0 0 7.051901,3.79035 l 15.51366,-10.26228 a 11.795232,11.795232 0 0 0 4.03076,-4.53943 L 134.18227,83.6649 a 17.656454,17.656454 0 0 1 10.54462,-8.933045 l 25.61079,-7.943227 a 4.8941792,4.8941792 0 0 0 3.44438,-4.674519 4.1374683,4.1374683 0 0 0 -5.43675,-3.914889 z M 94.545429,76.931052 a 3.9139513,3.9139513 0 0 0 4.430149,3.318398 h 5.794792 a 6.8104403,6.8104403 0 0 1 4.96881,2.152883 l 6.69934,7.147071 4.06602,-7.556307 -5.95502,-7.118557 a 6.6236024,6.6236024 0 0 0 -5.08034,-2.373659 H 98.975578 a 4.4301517,4.4301517 0 0 0 -4.430149,4.430171 z m 38.358101,19.593053 -3.87468,7.748565 10.85658,13.17114 a 12.251458,12.251458 0 0 0 9.45383,4.45894 h 21.07201 a 3.3707675,3.3707675 0 0 0 3.37079,-3.37076 3.874104,3.874104 0 0 0 -3.94862,-3.79814 h -17.38725 a 10.087613,10.087613 0 0 1 -7.84349,-3.74412 z" />
      <g
         id="g2615-3-5-5"
         transform="matrix(0.23295834,0,0,0.23295834,-514.53181,-86.111817)"
         inkscape:export-xdpi="60.222229"
         inkscape:export-ydpi="60.222229">
        <path
           style="stroke-width:7.4072"
           id="path2455-6-4-7-8"
           d="m 2641.6466,1034.8121 c 0,-7.2072 -5.8517,-13.0514 -13.0514,-13.0514 -7.2072,0 -13.0514,5.8442 -13.0514,13.0514 v 94.7379 h -53.2504 v -94.7379 c 0,-7.2072 -5.8515,-13.0514 -13.0587,-13.0514 -7.2073,0 -13.059,5.8442 -13.059,13.0514 v 98.6266 c 0,1.0519 0.1338,2.0593 0.3704,3.0369 0.5555,3.5259 1.9925,7.948 5.5036,11.8515 3.0887,3.4296 8.7848,7.5331 18.3624,7.5331 0.7629,0 1.5036,-0.075 2.2294,-0.2 h 52.6504 c 0.7258,0.126 1.4666,0.2 2.2221,0.2 1.437,0 2.7778,-0.1042 4.0295,-0.2666 0.1631,-0.022 0.3112,-0.051 0.4592,-0.075 0.2223,-0.03 0.4445,-0.059 0.652,-0.1042 0.1478,-0.022 0.2888,-0.045 0.4295,-0.081 6.3036,-1.1999 10.3626,-4.3109 12.7996,-7.0146 6.0442,-6.7256 5.9554,-14.9995 5.7628,-17.5327 z"
           fill="#ffffff" />
        <path
           style="stroke-width:7.4072"
           id="path2457-7-8-5-1"
           d="m 2494.7326,1029.6122 c -4.2887,-5.7924 -12.4663,-7.0146 -18.2587,-2.7183 l -60.5537,44.8578 c -1.1704,0.8593 -2.1408,1.8962 -2.9333,3.0221 -2.4072,2.8 -5.3998,7.4738 -5.7257,13.7552 -0.2148,4.0073 0.6297,9.77 5.3628,15.6439 0.837,1.3481 1.9332,2.5703 3.2962,3.5851 l 60.5537,44.858 c 2.3406,1.7332 5.0664,2.5627 7.7627,2.5627 3.9999,0 7.9405,-1.8221 10.496,-5.2738 4.2888,-5.7999 3.0739,-13.97 -2.7258,-18.2588 l -56.539,-41.8949 56.539,-41.8803 c 5.7997,-4.2887 7.0146,-12.4663 2.7258,-18.2587 z"
           fill="#ffffff" />
        <path
           style="stroke-width:7.4072"
           id="path2459-5-9-8-2"
           d="m 2376.5658,1021.768 c -7.2145,0 -13.0589,5.8444 -13.0589,13.0514 v 107.3376 c 0,7.2071 5.8444,13.0588 13.0589,13.0588 7.2072,0 13.0515,-5.8517 13.0515,-13.0588 v -107.3449 c 0,-7.2072 -5.8443,-13.0441 -13.0515,-13.0441 z"
           fill="#ffffff" />
        <path
           style="stroke-width:7.4072"
           id="path2461-9-0-8-9"
           d="m 2774.0352,1129.55 h -67.4277 v -94.7379 c 0,-7.2072 -5.8515,-13.0514 -13.0662,-13.0514 -7.2072,0 -13.0589,5.8442 -13.0589,13.0514 v 98.6266 c 0,1.0444 0.1416,2.0593 0.3704,3.0295 0.5482,3.5333 1.9852,7.9479 5.4961,11.8664 3.0889,3.4295 8.7923,7.5331 18.3624,7.5331 0.763,0 1.5038,-0.075 2.2296,-0.2 h 67.0869 c 7.222,0 13.0589,-5.8517 13.0589,-13.0515 0,-7.222 -5.8369,-13.0662 -13.0515,-13.0662 z"
           fill="#ffffff" />
        <path
           style="stroke-width:7.4072"
           id="path2463-6-1-6-4"
           d="m 2921.6381,1034.8121 c 0,-7.2072 -5.8369,-13.0514 -13.0514,-13.0514 -7.2072,0 -13.0515,5.8442 -13.0515,13.0514 v 94.7379 h -53.2576 v -94.7379 c 0,-7.2072 -5.8517,-13.0514 -13.0589,-13.0514 -7.2072,0 -13.0589,5.8442 -13.0589,13.0514 v 98.6266 c 0,1.037 0.1415,2.0443 0.363,3.0147 0.5555,3.5258 1.9925,7.9627 5.5109,11.8812 3.0887,3.4295 8.7849,7.5331 18.3624,7.5331 0.7629,0 1.5111,-0.075 2.2369,-0.2 h 52.6504 c 0.7258,0.126 1.4591,0.2 2.2294,0.2 1.4297,0 2.7703,-0.1042 4.0295,-0.2668 0.1478,-0.022 0.2816,-0.045 0.4297,-0.067 0.237,-0.03 0.4666,-0.067 0.7037,-0.1104 0.1338,-0.022 0.2593,-0.045 0.3925,-0.075 6.311,-1.2072 10.3776,-4.3109 12.807,-7.0219 6.0148,-6.6961 5.9628,-14.9107 5.7629,-17.4959 z"
           fill="#ffffff" />
        <path
           style="stroke-width:7.4072"
           id="path2465-4-4-8-7"
           d="m 3213.5772,1130.8388 v -96.0267 c 0,-7.2072 -5.8442,-13.0514 -13.0514,-13.0514 -7.222,0 -13.0588,5.8442 -13.0588,13.0514 v 94.7379 h -53.2726 v -94.7379 c 0,-7.2072 -5.8367,-13.0514 -13.0587,-13.0514 -7.2072,0 -13.0515,5.8442 -13.0515,13.0514 v 98.6266 c 0,1.037 0.1416,2.0443 0.3556,3.0147 0.5555,3.5258 1.9926,7.9627 5.5109,11.8812 3.0887,3.4295 8.7849,7.5331 18.3625,7.5331 0.7703,0 1.5036,-0.075 2.2295,-0.2 h 52.665 c 0.726,0.126 1.4666,0.2 2.2371,0.2 1.4147,0 2.7553,-0.1042 4.022,-0.2668 0.1556,-0.022 0.3111,-0.051 0.4592,-0.075 0.2296,-0.03 0.4519,-0.059 0.652,-0.1043 0.1555,-0.022 0.2887,-0.045 0.4369,-0.081 6.2961,-1.1999 10.3479,-4.311 12.7921,-7.0146 6.0221,-6.696 5.9628,-14.9106 5.7702,-17.4884 z"
           fill="#ffffff" />
        <path
           style="stroke-width:7.4072"
           id="path2467-0-8-5-0"
           d="m 2976.8513,1021.768 c -7.2072,0 -13.0589,5.8444 -13.0589,13.0514 v 107.5524 c 0,7.2071 5.8517,13.0515 13.0589,13.0515 7.207,0 13.0587,-5.8444 13.0587,-13.0515 v -107.5524 c -0.015,-7.2145 -5.859,-13.0514 -13.0587,-13.0514 z"
           fill="#ffffff" />
        <path
           style="stroke-width:7.4072"
           id="path2469-0-5-3-4"
           d="m 3071.8038,1054.8633 c -0.7628,-1.0444 -1.6814,-1.9925 -2.7776,-2.7999 l -33.9694,-25.1622 c -5.7924,-4.2962 -13.97,-3.074 -18.2661,2.7185 -4.2887,5.7924 -3.0814,13.9698 2.7185,18.2587 l 25.4954,18.8956 -25.4954,18.8959 c -5.7999,4.2886 -7.0072,12.4662 -2.726,18.2512 2.563,3.4591 6.511,5.2887 10.5109,5.2887 2.6963,0 5.4146,-0.8296 7.7627,-2.5629 l 33.9694,-25.1621 c 1.3333,-0.9851 2.3999,-2.1778 3.2443,-3.5036 2.7555,-3.6444 4.1555,-7.8739 3.9257,-12.1996 -0.2666,-4.9481 -2.4665,-8.6147 -4.3924,-10.9183 z"
           fill="#ffffff" />
      </g>
    </g>
    <use
       height="100%"
       width="100%"
       x="0"
       y="0"
       xlink:href="#g1834"
       id="use1836" />
  </g>
</svg>
