<?xml version="1.0" encoding="utf-8"?>
<!-- Generator: Adobe Illustrator 14.0.0, SVG Export Plug-In . SVG Version: 6.00 Build 43363)  -->
<!DOCTYPE svg PUBLIC "-//W3C//DTD SVG 1.1//EN" "http://www.w3.org/Graphics/SVG/1.1/DTD/svg11.dtd">
<svg version="1.1" id="Layer_1" xmlns="http://www.w3.org/2000/svg" xmlns:xlink="http://www.w3.org/1999/xlink" x="0px" y="0px"
	 width="595.28px" height="841.89px" viewBox="0 0 595.28 841.89" enable-background="new 0 0 595.28 841.89" xml:space="preserve">
<g>
	<circle fill="#231F20" cx="104.117" cy="104.118" r="75.21"/>
	<g>
		<path fill="#FFFFFF" d="M134.443,75.667c-1.843-2.494-5.365-3.019-7.858-1.171l-26.062,19.306c-0.5,0.372-0.921,0.816-1.26,1.302
			c-1.036,1.204-2.323,3.217-2.465,5.921c-0.094,1.724,0.266,4.206,2.307,6.73c0.36,0.584,0.833,1.112,1.418,1.547l26.062,19.305
			c1.005,0.744,2.179,1.104,3.339,1.104c1.72,0,3.418-0.785,4.52-2.273c1.847-2.494,1.326-6.013-1.17-7.86l-24.333-18.024
			l24.333-18.027C135.769,81.678,136.291,78.158,134.443,75.667z"/>
		<path fill="#FFFFFF" d="M83.588,72.288c-3.104,0-5.617,2.515-5.617,5.614v46.196c0,3.104,2.514,5.62,5.617,5.62
			c3.101,0,5.618-2.517,5.618-5.62V77.902C89.206,74.803,86.688,72.288,83.588,72.288z"/>
	</g>
</g>
<rect fill="none" width="208.234" height="208.234"/>
</svg>
