<?xml version="1.0" encoding="utf-8"?>
<!-- Generator: Adobe Illustrator 14.0.0, SVG Export Plug-In . SVG Version: 6.00 Build 43363)  -->
<!DOCTYPE svg PUBLIC "-//W3C//DTD SVG 1.1//EN" "http://www.w3.org/Graphics/SVG/1.1/DTD/svg11.dtd">
<svg version="1.1" id="Layer_1" xmlns="http://www.w3.org/2000/svg" xmlns:xlink="http://www.w3.org/1999/xlink" x="0px" y="0px"
	 width="595.28px" height="841.89px" viewBox="0 0 595.28 841.89" enable-background="new 0 0 595.28 841.89" xml:space="preserve">
<circle fill="#231F20" cx="311.729" cy="106.399" r="75.21"/>
<g>
	<path fill="#FFFFFF" d="M291.892,99.108c0-0.973-0.79-1.762-1.762-1.762c-0.973,0-1.762,0.789-1.762,1.762v12.79h-7.189v-12.79
		c0-0.973-0.79-1.762-1.763-1.762c-0.973,0-1.763,0.789-1.763,1.762v13.315c0,0.142,0.018,0.278,0.05,0.41
		c0.075,0.476,0.269,1.073,0.743,1.6c0.417,0.463,1.186,1.017,2.479,1.017c0.103,0,0.203-0.01,0.301-0.027h7.108
		c0.098,0.017,0.198,0.027,0.3,0.027c0.194,0,0.375-0.014,0.544-0.036c0.022-0.003,0.042-0.007,0.062-0.01
		c0.03-0.004,0.06-0.008,0.088-0.014c0.02-0.003,0.039-0.006,0.058-0.011c0.851-0.162,1.399-0.582,1.728-0.947
		c0.816-0.908,0.804-2.025,0.778-2.367V99.108z"/>
	<path fill="#FFFFFF" d="M272.058,98.406c-0.579-0.782-1.683-0.947-2.465-0.367l-8.175,6.056c-0.158,0.116-0.289,0.256-0.396,0.408
		c-0.325,0.378-0.729,1.009-0.773,1.857c-0.029,0.541,0.085,1.319,0.724,2.112c0.113,0.182,0.261,0.347,0.445,0.484l8.175,6.056
		c0.316,0.234,0.684,0.346,1.048,0.346c0.54,0,1.072-0.246,1.417-0.712c0.579-0.783,0.415-1.886-0.368-2.465l-7.633-5.656
		l7.633-5.654C272.473,100.292,272.637,99.188,272.058,98.406z"/>
	<path fill="#FFFFFF" d="M256.105,97.347c-0.974,0-1.763,0.789-1.763,1.762v14.491c0,0.973,0.789,1.763,1.763,1.763
		c0.973,0,1.762-0.79,1.762-1.763V99.108C257.867,98.135,257.078,97.347,256.105,97.347z"/>
	<path fill="#FFFFFF" d="M309.765,111.898h-9.103v-12.79c0-0.973-0.79-1.762-1.764-1.762c-0.973,0-1.763,0.789-1.763,1.762v13.315
		c0,0.141,0.019,0.278,0.05,0.409c0.074,0.477,0.268,1.073,0.742,1.602c0.417,0.463,1.187,1.017,2.479,1.017
		c0.103,0,0.203-0.01,0.301-0.027h9.057c0.975,0,1.763-0.79,1.763-1.762C311.527,112.687,310.739,111.898,309.765,111.898z"/>
	<path fill="#FFFFFF" d="M329.692,99.108c0-0.973-0.788-1.762-1.762-1.762c-0.973,0-1.762,0.789-1.762,1.762v12.79h-7.19v-12.79
		c0-0.973-0.79-1.762-1.763-1.762s-1.763,0.789-1.763,1.762v13.315c0,0.14,0.019,0.276,0.049,0.407
		c0.075,0.476,0.269,1.075,0.744,1.604c0.417,0.463,1.186,1.017,2.479,1.017c0.103,0,0.204-0.01,0.302-0.027h7.108
		c0.098,0.017,0.197,0.027,0.301,0.027c0.193,0,0.374-0.014,0.544-0.036c0.02-0.003,0.038-0.006,0.058-0.009
		c0.032-0.004,0.063-0.009,0.095-0.015c0.018-0.003,0.035-0.006,0.053-0.01c0.852-0.163,1.401-0.582,1.729-0.948
		c0.812-0.904,0.805-2.013,0.778-2.362V99.108z"/>
	<path fill="#FFFFFF" d="M369.105,112.072V99.108c0-0.973-0.789-1.762-1.762-1.762c-0.975,0-1.763,0.789-1.763,1.762v12.79h-7.192
		v-12.79c0-0.973-0.788-1.762-1.763-1.762c-0.973,0-1.762,0.789-1.762,1.762v13.315c0,0.14,0.019,0.276,0.048,0.407
		c0.075,0.476,0.269,1.075,0.744,1.604c0.417,0.463,1.186,1.017,2.479,1.017c0.104,0,0.203-0.01,0.301-0.027h7.11
		c0.098,0.017,0.198,0.027,0.302,0.027c0.191,0,0.372-0.014,0.543-0.036c0.021-0.003,0.042-0.007,0.062-0.01
		c0.031-0.004,0.061-0.008,0.088-0.014c0.021-0.003,0.039-0.006,0.059-0.011c0.85-0.162,1.397-0.582,1.727-0.947
		C369.139,113.529,369.131,112.42,369.105,112.072z"/>
	<path fill="#FFFFFF" d="M337.146,97.347c-0.973,0-1.763,0.789-1.763,1.762v14.52c0,0.973,0.79,1.762,1.763,1.762
		s1.763-0.789,1.763-1.762v-14.52C338.908,98.135,338.118,97.347,337.146,97.347z"/>
	<path fill="#FFFFFF" d="M349.965,101.815c-0.103-0.141-0.227-0.269-0.375-0.378l-4.586-3.397c-0.782-0.58-1.886-0.415-2.466,0.367
		c-0.579,0.782-0.416,1.886,0.367,2.465l3.442,2.551l-3.442,2.551c-0.783,0.579-0.946,1.683-0.368,2.464
		c0.346,0.467,0.879,0.714,1.419,0.714c0.364,0,0.731-0.112,1.048-0.346l4.586-3.397c0.18-0.133,0.324-0.294,0.438-0.473
		c0.372-0.492,0.561-1.063,0.53-1.647C350.522,102.621,350.225,102.126,349.965,101.815z"/>
</g>
</svg>
